# xmcd
#
# Track frame offsets: 
#        150
#        12980
#        27217
#        40252
#        52670
#        65065
#        78195
#        91857
#        106700
#        120622
#        135202
#        149595
#        163287
#        175647
#        188760
#        201310
#        214452
#        229475
#        241830
#        254495
#        269182
#        282975
#        295027
#        308870
#
# Disc length: 4321 seconds
#
# Revision: 1
# Processed by: cddbd v1.5.2PL0 Copyright (c) Steve Scherf et al.
# Submitted via: ExactAudioCopy v1.0b3
#
DISCID=5f10df18
DTITLE=Carter Family - The Best of The Carter Family
DYEAR=1999
DGENRE=Folk
TTITLE0=Keep on the sunny side
TTITLE1=Wildwood flower
TTITLE2=Bury me under the weeping willow
TTITLE3=Anchored in love
TTITLE4=Worried man blues
TTITLE5=John Hardy was a desperate little man
TTITLE6=I'm thinking tonight of my blue eyes
TTITLE7=My clinch mountain home
TTITLE8=The foggy mountain top
TTITLE9=Little darling pal of mine
TTITLE10=Sailor boy
TTITLE11=When i'm gone
TTITLE12=Single girl, married girl
TTITLE13=Rambling boy
TTITLE14=The mountains of Tennessee
TTITLE15=My old cottage home
TTITLE16=The wandering boy
TTITLE17=In the valley of the Shenandoah
TTITLE18=The storms are on the ocean
TTITLE19=Meet me by the moonlight alone
TTITLE20=The dying soldier
TTITLE21=Lonesome valley
TTITLE22=Chewing gum
TTITLE23=Jimmie Rodgers visits the Carter Family  A)My clinch mountain
TTITLE23=home  B)Little darling pal of mine  C)There'll be a hot time
TTITLE23=in the old town tonight
EXTD=
EXTT0=
EXTT1=
EXTT2=
EXTT3=
EXTT4=
EXTT5=
EXTT6=
EXTT7=
EXTT8=
EXTT9=
EXTT10=
EXTT11=
EXTT12=
EXTT13=
EXTT14=
EXTT15=
EXTT16=
EXTT17=
EXTT18=
EXTT19=
EXTT20=
EXTT21=
EXTT22=
EXTT23=
PLAYORDER=
